# xmcd CD database file
#
# Track frame offsets:
#	150
#	17625
#	37302
#	54390
#	74567
#	93785
#	116267
#	134927
#	153007
#	176870
#	194527
#	211630
#
# Disc length: 3135 seconds
#
# Revision: 0
# Processed by: cddbd v1.5PL3 Copyright (c) Steve Scherf et al.
# Submitted via: CDex 1.51
#
DISCID=a90c3d0c
DTITLE=LoriGold - LoriGold
DYEAR=1995
DGENRE=R'n'B
TTITLE0=I Likes It
TTITLE1=Candy
TTITLE2=Tender Lovin' Care
TTITLE3=Time Waits For No One
TTITLE4=Can't Stop Thinking Of You
TTITLE5=The Croser I Get You
TTITLE6=Holdin' On
TTITLE7=So Special
TTITLE8=Could It Be
TTITLE9=Thief Of Hearts
TTITLE10=I Likes It (Doncker Radio Edit)
TTITLE11=I Likes It (The Big Exyended Mix)
EXTD=YEAR: 1995
EXTT0=
EXTT1=
EXTT2=
EXTT3=
EXTT4=
EXTT5=
EXTT6=
EXTT7=
EXTT8=
EXTT9=
EXTT10=
EXTT11=
PLAYORDER=
